<?xml version="1.0" encoding="utf-8" ?><svg xmlns="http://www.w3.org/2000/svg" xmlns:xlink="http://www.w3.org/1999/xlink" width="1024" height="1024" viewBox="0 0 1024 1024"><path fill="#141934" d="M499.703 170.92L500.196 171.182C507.768 175.29 515.592 181.249 522.992 185.764C534.409 192.73 546.074 199.642 557.763 206.138C614.486 238.212 676.004 260.944 739.954 273.459C748.832 275.137 763.125 277.869 772.014 278.75L772.028 477.166C772.191 485.406 774.743 494.119 775.267 502.37C776.475 521.41 775.609 544.808 771.541 563.46C766.871 600.51 761.628 624.235 745.301 658.077C748.804 661.555 752.684 665.216 755.769 669.026C776.477 665.722 780.9 674.394 794.192 687.868L820.437 714.132L848.1 741.402C857.554 750.684 868.078 758.524 869.965 772.399C871.121 780.894 868.797 789.496 863.519 796.253C858.396 802.954 850.791 807.311 842.419 808.339C824.654 810.389 816.493 798.857 805.029 787.524L774.374 756.625L750.853 733.144C745.748 728.075 739.201 722.096 734.947 716.46C732.424 713.137 730.912 709.156 730.591 704.996C730.291 701.289 730.667 697.559 731.704 693.987C729.973 692.214 728.714 690.749 726.639 689.377C719.514 701.851 701.179 722.404 691.276 732.89C652.148 774.262 606.641 809.095 556.488 836.065C537.397 846.46 519.154 854.837 499.721 864.264C492.111 861.184 482.971 856.017 475.413 852.351C360.056 796.398 242.806 700.872 230.744 564.21C228.67 540.707 228.978 517.336 229.018 493.662C229.202 459.414 229.215 425.165 229.056 390.916C229.044 374.14 229.551 355.037 228.938 338.456C229.455 326.484 229.086 311.828 229.087 299.657C229.069 292.797 229.144 285.686 228.995 278.85C308.129 268.669 391.172 236.731 459.486 196.136C472.577 188.356 487.353 179.731 499.703 170.92ZM583.362 681.601C673.606 677.48 743.427 600.991 739.324 510.746C735.22 420.502 658.745 350.665 568.5 354.75C478.229 358.837 408.369 435.338 412.473 525.608C416.578 615.878 493.093 685.723 583.362 681.601Z"/><path fill="#03D8F8" d="M704.631 668.173C683.861 684.84 663.605 697.071 638.184 705.556C587.796 722.427 532.75 718.421 485.335 694.433C437.969 670.77 401.978 629.216 385.319 578.957C369.102 529.989 373.231 476.56 396.779 430.665C421.301 382.929 463.535 346.688 514.442 329.698C565.281 313.43 620.513 318.157 667.848 342.826C708.767 363.859 741.207 398.324 759.729 440.438C766.146 455.363 767.375 462.662 772.028 477.166C772.191 485.406 774.743 494.119 775.267 502.37C776.475 521.41 775.609 544.808 771.541 563.46C766.871 600.51 761.628 624.235 745.301 658.077C748.804 661.555 752.684 665.216 755.769 669.026C776.477 665.722 780.9 674.394 794.192 687.868L820.437 714.132L848.1 741.402C857.554 750.684 868.078 758.524 869.965 772.399C871.121 780.894 868.797 789.496 863.519 796.253C858.396 802.954 850.791 807.311 842.419 808.339C824.654 810.389 816.493 798.857 805.029 787.524L774.374 756.625L750.853 733.144C745.748 728.075 739.201 722.096 734.947 716.46C732.424 713.137 730.912 709.156 730.591 704.996C730.291 701.289 730.667 697.559 731.704 693.987C729.973 692.214 728.714 690.749 726.639 689.377C722.832 686.589 708.589 672.047 704.631 668.173ZM583.362 681.601C673.606 677.48 743.427 600.991 739.324 510.746C735.22 420.502 658.745 350.665 568.5 354.75C478.229 358.837 408.369 435.338 412.473 525.608C416.578 615.878 493.093 685.723 583.362 681.601Z"/><path fill="#141934" d="M730.275 643.107C744.726 625.197 754.92 609.207 763.355 587.612C765.309 582.611 769.683 566.103 771.541 563.46C766.871 600.51 761.628 624.235 745.301 658.077C740.176 653.205 735.166 648.214 730.275 643.107Z"/><path fill="#141934" d="M568.5 354.75C658.745 350.665 735.22 420.502 739.324 510.746C743.427 600.991 673.606 677.48 583.362 681.601C493.093 685.723 416.578 615.878 412.473 525.608C408.369 435.338 478.229 358.837 568.5 354.75ZM670.126 565.791C678.755 565.026 687.972 561.975 693.407 554.665C707.36 535.896 708.404 494.522 689.624 478.31C682.764 472.389 673.504 470.623 664.861 471.197C658.435 472.117 652.472 473.707 647.326 477.864C626.65 494.571 626.467 543.736 648.002 559.827C653.504 563.938 663.356 566.496 670.126 565.791ZM528.087 503.553L547.383 503.365C548.118 479.486 572.807 485.271 570.712 501.967C568.799 517.219 539.631 540.449 528.577 549.862C529.1 554.366 528.95 560.221 528.718 564.806C531.555 564.709 534.549 564.547 537.375 564.594C555.351 564.582 574.135 564.855 592.028 564.534L592.021 548.467C580.418 548.389 566.486 547.989 555.108 548.516C569.342 536.052 588.763 521.506 590.287 501.384C591.818 481.166 576.62 470.623 558.077 471.698C536.912 473.872 530.523 483.842 528.087 503.553ZM611.37 543.719C605.464 545.069 601.707 550.877 602.898 556.817C604.09 562.758 609.796 566.668 615.766 565.637C619.772 564.944 623.087 562.131 624.422 558.291C625.758 554.45 624.903 550.188 622.19 547.159C619.477 544.13 615.334 542.813 611.37 543.719ZM447.679 495.741C448.424 499.454 452.433 509.1 453.99 513.236L465.613 544.272C467.924 550.48 471.17 558.757 472.818 565.091C480.315 564.971 487.814 564.977 495.31 565.108C501.344 546.804 509.113 528.98 515.462 510.857C517.332 505.944 519.049 500.974 520.612 495.955C515.739 495.951 505.462 496.171 500.889 495.657C496.032 512.207 489.669 529.37 484.537 546.219C480.93 534.669 477.226 523.15 473.426 511.662C472.153 507.797 469.712 499.638 468.082 496.472C464.192 494.925 452.352 495.655 447.679 495.741Z"/><path fill="#141934" d="M664.013 489.14C670.771 488.636 677.635 489.292 680.219 496.807C684.523 509.326 685.298 529.569 679.025 541.627C677.305 544.933 674.567 546.16 671.454 547.424C664.257 547.858 657.792 546.739 655 539.025C650.76 527.315 650.752 509.98 654.829 498.177C656.514 493.298 659.662 490.982 664.013 489.14Z"/><path fill="#03D8F8" d="M575.07 376.186C594.686 375.575 615.099 379.881 633.08 387.637C654.994 396.923 674.246 411.528 689.095 430.128C694.565 436.865 705.019 448.33 690.861 452.65C684.566 451.649 681.196 443.905 677.262 439.111C669.044 429.2 659.487 420.481 648.867 413.204C629.662 400.156 606.1 392.029 582.953 391.226C580.381 391.137 572.849 390.815 570.963 389.176C565.571 384.494 567.716 377.416 575.07 376.186Z"/><path fill="#03D8F8" d="M423.761 260.99C425.086 262.525 424.587 282.221 424.583 285.795C379.898 307.039 341.196 321.163 292.602 331.966L292.495 455.408L292.431 510.776C292.397 544.426 292.12 573.273 303.312 605.703C333.489 693.145 421.817 754.226 500.206 794.076C520.582 784.515 540.753 772.616 559.983 760.905C571.805 753.705 582.565 744.521 594.312 737.338C597.071 735.651 608.774 735.825 612.428 734.763C621.526 733.226 629.754 731.13 638.751 728.792C630.557 736.346 622.105 743.616 613.409 750.587C574.855 778.665 543.754 798.442 500.156 818.904C489.518 814.372 476.45 807.079 466.204 801.444C422.252 777.273 384.915 751.277 349.439 715.744C305.469 671.705 276.814 622.358 271.544 559.39C270.29 544.396 270.464 532.377 270.459 517.351L270.466 468.062L270.455 313.759C282.186 311.031 293.592 308.877 305.397 305.814C346.433 295.44 386.146 280.4 423.761 260.99Z"/><path fill="#03D8F8" d="M500.073 205.312C501.213 205.822 540.811 251.57 544.799 256.312C536.286 256.123 527.583 256.152 519.054 256.091L519.09 304.173C511.765 306.259 504.522 308.622 497.377 311.256C492.005 313.206 487.34 315.236 482.116 317.517L482.097 256.085L456.381 256.135C470.769 239.044 485.334 222.102 500.073 205.312Z"/><path fill="#03D8F8" d="M576.028 260.36C620.549 282.701 665.083 299.727 713.958 310.171C719.434 311.341 724.931 312.474 730.382 313.75C730.412 328.551 730.642 343.934 730.314 358.686C723.261 352.605 715.76 346.685 708.5 340.822L708.435 331.67C702.828 330.041 692.18 328.838 687.432 326.52C673.48 319.713 661.236 313.845 646.412 308.85C639.665 306.53 632.789 304.601 625.818 303.074C620.627 301.98 609.565 300.125 604.979 298.601C596.307 295.718 584.569 289.599 576.125 285.537C575.832 277.557 576.033 268.427 576.028 260.36Z"/></svg>